HIERARCHY
ROOT Hips
{
	OFFSET -238.313904 85.665176 430.008087
	CHANNELS 6 Xposition Yposition Zposition Zrotation Yrotation Xrotation 
	JOINT LeftUpLeg
	{
		OFFSET 0.103457 1.857819 10.548500
		CHANNELS 3 Zrotation Yrotation Xrotation
		JOINT LeftLeg
		{
			OFFSET 43.500000 -0.000019 -0.000010
			CHANNELS 3 Zrotation Yrotation Xrotation
			JOINT LeftFoot
			{
				OFFSET 42.372196 0.000008 0.000000
				CHANNELS 3 Zrotation Yrotation Xrotation
				JOINT LeftToe
				{
					OFFSET 17.300003 0.000001 0.000006
					CHANNELS 3 Zrotation Yrotation Xrotation
					End Site
					{
						OFFSET 0.000000 0.000000 0.000000
					}
				}
			}
		}
	}
	JOINT RightUpLeg
	{
		OFFSET 0.103456 1.857821 -10.548498
		CHANNELS 3 Zrotation Yrotation Xrotation
		JOINT RightLeg
		{
			OFFSET 43.500046 -0.000031 0.000019
			CHANNELS 3 Zrotation Yrotation Xrotation
			JOINT RightFoot
			{
				OFFSET 42.372261 -0.000004 0.000021
				CHANNELS 3 Zrotation Yrotation Xrotation
				JOINT RightToe
				{
					OFFSET 17.300016 0.000003 0.000000
					CHANNELS 3 Zrotation Yrotation Xrotation
					End Site
					{
						OFFSET 0.000000 0.000000 0.000000
					}
				}
			}
		}
	}
	JOINT Spine
	{
		OFFSET 6.901967 -2.603733 -0.000002
		CHANNELS 3 Zrotation Yrotation Xrotation
		JOINT Spine1
		{
			OFFSET 12.588102 0.000004 -0.000004
			CHANNELS 3 Zrotation Yrotation Xrotation
			JOINT Spine2
			{
				OFFSET 12.343203 -0.000004 0.000000
				CHANNELS 3 Zrotation Yrotation Xrotation
				JOINT Neck
				{
					OFFSET 25.832895 -0.000011 0.000005
					CHANNELS 3 Zrotation Yrotation Xrotation
					JOINT Head
					{
						OFFSET 11.766605 0.000003 0.000008
						CHANNELS 3 Zrotation Yrotation Xrotation
						End Site
						{
							OFFSET 0.000000 0.000000 0.000000
						}
					}
				}
				JOINT LeftShoulder
				{
					OFFSET 19.745905 -1.480360 6.000111
					CHANNELS 3 Zrotation Yrotation Xrotation
					JOINT LeftArm
					{
						OFFSET 11.284124 0.000007 -0.000017
						CHANNELS 3 Zrotation Yrotation Xrotation
						JOINT LeftForeArm
						{
							OFFSET 33.000050 0.000003 0.000017
							CHANNELS 3 Zrotation Yrotation Xrotation
							JOINT LeftHand
							{
								OFFSET 25.200005 0.000010 0.000011
								CHANNELS 3 Zrotation Yrotation Xrotation
								End Site
								{
									OFFSET 0.000000 0.000000 0.000000
								}
							}
						}
					}
				}
				JOINT RightShoulder
				{
					OFFSET 19.746092 -1.480387 -6.000073
					CHANNELS 3 Zrotation Yrotation Xrotation
					JOINT RightArm
					{
						OFFSET 11.284132 -0.000045 -0.000015
						CHANNELS 3 Zrotation Yrotation Xrotation
						JOINT RightForeArm
						{
							OFFSET 33.000092 0.000031 0.000005
							CHANNELS 3 Zrotation Yrotation Xrotation
							JOINT RightHand
							{
								OFFSET 25.199797 0.000145 0.000419
								CHANNELS 3 Zrotation Yrotation Xrotation
								End Site
								{
									OFFSET 0.000000 0.000000 0.000000
								}
							}
						}
					}
				}
			}
		}
	}
}
MOTION
Frames: 7
Frame Time: 0.033333
-227.331497 86.006310 249.957596 90.387069 -2.789400 -34.346498 156.940672 4.078095 176.629990 -49.669129 5.430741 0.635971 92.541202 0.127358 5.244770 21.454553 0.003079 -0.000001 159.622286 10.925289 170.383727 -32.676158 -7.323388 -4.064498 79.671479 6.947718 15.569975 21.454557 -0.003109 -0.000017 7.437707 0.442497 -0.873310 4.855806 0.920906 -1.727480 4.537794 0.910601 -1.733001 -4.032116 -0.495189 9.187702 -2.730600 -5.755855 9.985328 -168.601908 -71.436402 -13.070111 -28.812914 48.142687 12.898688 -49.620658 -15.002908 1.738336 7.991922 -4.383140 38.460440 -169.409605 71.892365 12.234374 -6.428870 -49.845382 -32.293230 -34.676317 13.909498 -1.284233 10.629212 6.076534 -10.116549 
-226.652603 84.829643 246.635498 90.827842 -4.466994 -26.662688 154.636985 0.895401 179.316672 -55.104945 5.340411 4.467480 94.979210 -2.484333 5.565359 21.454551 0.003088 -0.000001 162.867486 12.208692 161.408367 -29.867400 -4.031135 -7.419763 83.618652 10.620330 24.302604 21.454560 -0.003107 -0.000017 7.519898 0.725055 -0.625278 5.019532 1.476286 -1.218843 4.701389 1.469038 -1.227727 -4.143618 -1.257642 8.222957 -2.994704 -4.501217 8.408853 -168.412999 -71.863391 -13.265309 -32.251279 47.841398 8.340266 -57.286805 -14.929776 1.994306 6.533437 -3.026139 40.789804 -169.582314 71.752537 12.056153 -3.369880 -48.975001 -34.864226 -35.334515 13.797861 -1.292061 10.461060 6.028287 -9.030657 
-226.009796 83.552559 243.535004 90.873830 -7.135303 -19.601898 151.748471 -3.306902 -178.518728 -60.697255 5.392013 8.634311 96.498921 -5.190957 6.664643 21.454555 0.003092 -0.000001 166.688321 10.747899 162.997861 -30.916155 -0.993013 -6.167742 90.251695 8.154707 24.580048 21.454557 -0.003108 -0.000017 7.698609 1.194925 -0.389033 5.377948 2.406466 -0.722599 5.059563 2.402195 -0.737121 -3.998191 -1.522604 7.337919 -3.270483 -4.161512 7.380969 -168.502106 -71.947300 -13.173597 -34.649208 48.008368 3.507173 -62.650668 -14.010519 2.131067 3.767009 -4.774870 39.182159 -172.065893 71.302244 9.494502 -3.354729 -46.759905 -37.506826 -33.448099 13.465574 -1.228204 10.694184 5.353611 -7.071650 
-225.701599 83.048340 240.865295 90.753249 -10.177660 -12.952696 148.704898 -7.686096 -176.304804 -64.531395 5.192181 12.306020 96.162588 -7.637051 6.435253 21.454555 0.003088 -0.000000 171.084163 7.698904 172.780249 -29.509542 -1.858766 -6.258489 93.616178 7.267183 23.254822 21.454560 -0.003108 -0.000017 7.780499 1.791761 -0.283435 5.543319 3.594889 -0.481397 5.224560 3.592051 -0.503121 -3.470536 -0.867594 6.922824 -3.335143 -4.850686 7.490090 -169.475626 -71.540289 -12.169567 -34.853670 48.619196 1.172089 -65.199353 -13.468843 2.192727 0.136150 -9.914339 34.760578 -174.708111 70.642816 6.763266 -5.912746 -44.171479 -39.489118 -29.188581 12.647238 -1.089173 11.401864 3.930226 -5.641884 
-225.794403 83.344963 238.902100 90.371292 -12.053301 -6.937988 146.111707 -10.943100 -175.260345 -66.002618 4.762156 15.268258 95.085099 -10.068801 2.525621 21.454548 0.003087 -0.000001 174.921992 4.945801 -178.953183 -26.864421 -3.411452 -6.332973 93.568367 7.184850 22.033700 21.454558 -0.003108 -0.000018 7.683047 2.156130 -0.237686 5.349926 4.320802 -0.376248 5.030857 4.318586 -0.402383 -2.456236 0.277322 7.024703 -3.385450 -5.801020 8.383133 -170.222903 -71.045818 -11.397179 -33.544268 49.730310 1.814968 -64.576078 -13.890031 2.197234 -2.735329 -15.975152 31.888179 -175.519701 70.320650 5.921759 -8.689629 -42.658203 -39.441723 -24.415693 11.527022 -0.936385 12.276589 2.403720 -6.732818 
-226.049805 83.832977 237.733093 89.811660 -12.130701 -1.847992 144.694498 -12.638795 -176.515038 -65.623044 4.060540 16.692868 95.088821 -11.766120 -3.350948 21.454555 0.003090 -0.000000 177.682467 3.460692 -176.854361 -24.892930 -3.875225 -4.096209 92.528429 5.844622 22.054671 21.454558 -0.003108 -0.000018 7.504775 2.121408 -0.107499 4.997833 4.245375 -0.123962 4.678772 4.244687 -0.149642 -1.309458 1.170446 7.487008 -3.717889 -6.473085 9.444961 -169.248399 -70.973766 -12.402534 -32.334799 51.383045 3.431258 -61.112476 -14.820559 2.127910 -3.425548 -19.135940 33.251430 -174.350100 70.730926 7.133703 -9.676843 -42.638638 -37.199553 -21.422415 11.229206 -0.875462 13.086865 1.970848 -9.668290 
-226.233795 84.332153 237.211105 89.353518 -10.945540 2.435608 144.220564 -13.234209 -178.934113 -64.408035 3.592678 17.149770 94.431812 -12.437151 -5.875911 21.454553 0.003092 -0.000000 179.333310 3.637405 -177.271317 -24.357512 -3.256905 -1.119548 91.694299 3.961034 22.132350 21.454558 -0.003109 -0.000017 7.356125 1.822064 0.114876 4.706580 3.637924 0.303336 4.387789 3.639828 0.281334 -0.714488 1.285461 8.280822 -4.370506 -6.948678 10.455261 -166.680412 -71.171124 -15.052053 -31.621092 53.047866 4.294321 -56.061192 -15.339838 1.978253 -1.903165 -18.298403 37.644103 -172.531507 71.707772 9.017493 -8.423378 -43.142460 -34.771721 -21.513481 11.925818 -0.921372 13.404250 3.137686 -11.234114 
